<svg xmlns="http://www.w3.org/2000/svg" viewBox="0 0 337.49 68.79"><defs><style>.cls-1{fill:#b8c4d2;}.cls-1,.cls-2,.cls-3,.cls-4,.cls-5{fill-rule:evenodd;}.cls-2{fill:#c64a2f;}.cls-3{fill:#fffffe;}.cls-4{fill:#002644;}.cls-5{fill:#b0bece;}</style></defs><g id="Layer_2" data-name="Layer 2"><g id="Layer_1-2" data-name="Layer 1"><g id="Symbols"><g id="Header"><g id="GBS-logo"><path id="Fill-1" class="cls-1" d="M101.09,0a34.4,34.4,0,1,0,34.4,34.39A34.39,34.39,0,0,0,101.09,0"/><path id="Fill-2" class="cls-2" d="M79.17,13.4a1.65,1.65,0,0,0,2,.14c.36-.14.24-.94,0-1.34-.48-.54,0-1.21-.36-1.61a1.26,1.26,0,0,0-1.09,0,1,1,0,0,1-.6.13C79.41,11.66,78.57,12.73,79.17,13.4Zm5.67-5.76c.24-.14.24-.8,0-1.07s-.48,0-.6,0C84.12,7.1,84.36,8.17,84.84,7.64ZM79,10.52c0-.48.18-.54.18-.74l.12-.4a3,3,0,0,0-1.08,0c-.37.27-.73.94-.49,1.21S78.51,10.39,79,10.52Zm8.08,14.55a.93.93,0,0,0,1.21-.4c.12-.14.55-.81.42-.94s-.3-.27-.42-.27-.18.34-.18.47-.36.33-.48.2.42-1,.3-1.27c-.12,0-.43-.06-.48.06C87.19,23.46,86.59,24.8,87.07,25.07Zm-.58-14.78c.36.2.23.49.6.36,0-.13.33-.55.45-.55a2.48,2.48,0,0,0,0-.94c.24,0,.6.13.72-.13.24-.94.73-1.75,1.57-1.48V6.61c.36.14.72-.13,1.09-.13a7.22,7.22,0,0,1,0-1.61,16.4,16.4,0,0,0-3.74.94,1.69,1.69,0,0,0,0,.8c.24.27.48.54.84.4v.41c-.24.4-.84.13-1,.4s0,1.21-.24,1.34C86.45,9.56,86.4,9.43,86.49,10.29ZM81.1,7.5c0-.26.12-.66-.12-.8l-.16-.06c-.32.23-.63.47-.94.72h0C80.26,7.64,80.74,7.5,81.1,7.5Zm2.78,3.09a.48.48,0,0,0-.73.13.81.81,0,0,0,1,1.07C84,11.39,84.36,11,83.88,10.59Zm1.68-2c.37,0,.73.13.85,0,.6-.81.12-1.74.24-2.68a2.57,2.57,0,0,0-.48,0c-.61.13-.24.94-.36,1.34A1.81,1.81,0,0,0,85.56,8.58Zm-3.49,2.14c-.31.34-.12.81-.12,1.21.24,0,.6.13.72,0a2.08,2.08,0,0,0,0-1.21C82.55,10.72,82.19,10.59,82.07,10.72Zm6.76,28.7c-.61,0-1.33.13-1.57-.27s-.12-1.08-.37-1.61-1-.81-1.44-1.21v-.54c-.73-.8-1.21,0-2-.4-.73-.13-1.21.54-1.94.54a4.77,4.77,0,0,1-1.32-.27,2.54,2.54,0,0,1-.12-.94c0-.13-.61,0-.85-.13-.36-.4,0-1.08-.12-1.48A.85.85,0,0,0,78,32.85v.26a2.09,2.09,0,0,1-1,.14c.12-.67-.36-1.21-.24-1.88l.36-.4a6.32,6.32,0,0,1,2.65-.54c-.12.4.13,1.07.61,1.07,0-.4-.12-.93.12-1.2a6.56,6.56,0,0,0,.84-1.88c0-.13.24-.27.48-.27s.37-.4.25-.67c.6.14,1.2,0,1.08-.8a3.47,3.47,0,0,0,1.69-.14c.36-.13.36-.8.12-1.07s-.48-.8-.36-1.07.24-.4.36-.54c.37-.13.85.14,1.09,0a7.72,7.72,0,0,0,1-1.07,1.52,1.52,0,0,0-.12-1.74c-.48-.41-1.33,0-1.69-.41-.6-.53-1.32-1.34-1.93-.8-.24.14-.12.94-.12,1.47-.24,0-.36,0-.48.14-.12.8,0,2.55-.85,1.88-.36-.14.13-1.08-.11-1.21-.61-.54-1.09-.81-1.33-1.61a1.87,1.87,0,0,1,0-1.61c.36-.67,1.2-.4,1.81-.8.12-.14,0-.41,0-.67s.84-.27,1.33-.54c.12,0,.24-.8.36-1.07s0-.81.12-1.21a3.14,3.14,0,0,0-1.09.13,6,6,0,0,0,0-1.47c-.12-.27-.48-.4-.6-.27-.24.4,0,1.34-.24,1.48-1,.53-2.17-.14-3.26-.14.24-.8-.6-1.2-1-1.74-.48-.81-1.56-.67-2.41-.4-.22.07-.24-.08-.34-.26a34.5,34.5,0,0,0-3.81,5.39,3.37,3.37,0,0,1,.24.94c0,.13.24.53.6.4.24,1.87,0,3.32.54,5.19-.25-.13-.37.14-.61.14-.24,1.74-.6,3.48,0,5.23a.61.61,0,0,0,.48.26c1,0,.24,2.95,1.45,2.95a7.46,7.46,0,0,1-.24-2.81c1,.94.24,2.54,1.09,3.48a5.11,5.11,0,0,0,.84.54v.54c.61.53,1.57,0,1.93.67a25,25,0,0,0,1.93,1.74c.13.14.65-.09,1.21.54v.4c-1.45.27-1.45,2.14-1,3.21.13.41.49.68,1,1.08a3.32,3.32,0,0,1,1.08,1.61c.37,2.41.25,4.82.49,7.24a4.52,4.52,0,0,0,.36,1.74c.12.4.85.54,1.09.94.48.54,1.08,1.21,1.8,1.07,0-.13,0-.4-.11-.4-.27,0-.37-.4-.61-.27a3.71,3.71,0,0,0-.6-1.21,3.21,3.21,0,0,1,.24-2.94c.36-.81,1.33-.94,1.45-2,1.08-.13,1.69-1.47,1.57-2.68a3,3,0,0,0,1.81-.67c.12-.27.12-.8.24-1.2a2.71,2.71,0,0,0,.72-.94c.12-.67.36-1.61,0-2A3.85,3.85,0,0,0,88.83,39.42ZM123,33.92a2.1,2.1,0,0,1-.36-1.48c.12,0,.48-.13.61,0,.36.54.84.94,1.32.54.12,0-.12-.67,0-.67.49-.4,1,.27,1.45.4,0-.27.12-.67-.12-.94h-.36c-.12-.67.36-1.34,0-2-.12-.13-.36-.27-.36-.4,0-.94-.61-1.88-.12-2.55.24-.4,1-.13,1.2.4s.36,1.08.49,1.61c.12.27.72.27.72.14a1.74,1.74,0,0,0-.12-1.88,1.6,1.6,0,0,1-.73-1.74c.61.13,1.09,0,1.21-.54.36-1.47-.12-2.68-.36-4.16,0-.13-.72-.26-.85-.53a1.53,1.53,0,0,1,.49-1.88c.6-.4.78.7,1.38.43.36-.27-.51-.65-.51-1.19.24,0,.48.14.72,0s.37-.4.24-.67h.49a10.48,10.48,0,0,0,.24,3.89c.12.4.36,1.34.6.8a3.77,3.77,0,0,0,0-2.81,2,2,0,0,1-.12-2c.06-.07.2-.07.34-.05a35,35,0,0,0-3.87-5.23,1.31,1.31,0,0,0-.55.2c-.36.27.45-.58,0-.72l0-.07-.34-.36a4.72,4.72,0,0,1-1.87-.39,1.69,1.69,0,0,0-2,.13c-.48.41-.24.68-.73,1.35-.12,0-.36.13-.48-.14-.36-.53-.94-.32-1.33-.53s-.71.79-.84.67c-1.33-1.21-1.45.8-2.41,0-.49-.4.22-2.68-.49-2.68s-1-.81-1.69-.14a4.5,4.5,0,0,1-.24,3.08c-.36.67-1.2,1.08-1.81,1.75v.4c-.48-.13-1,.4-1.45.27a2.94,2.94,0,0,1-.12,1.47c0,.14-.36-.13-.6,0s-.36.41-.24.67c-.36,0-.6-.13-1-.13a5.32,5.32,0,0,0-2.05.13c-.24.14-.24.81-.48,1.21a.51.51,0,0,1-.6,0c-.12-.27.12-.4.24-.67h.36c.24-1.21-1-1.61-1.69-2-1.09-.67-1.33.8-2.9,1.61-.11.05,0,.4,0,.4a.71.71,0,0,0-.36.54c-.12,1.07-1.2,1.74-1.2,2.68v1.34c.36-.14.84-.4,1.2-.27.48.4-.24,1.88.48,1.34.37-.27.31-1.34,1-1.07.12-.54-.12-.67-.36-.94-.48-.4-.67-1.74.18-1.61v-.27h.24c.24-.53.52-1.38.85-.8.6,1.07-.49,1.88-.13,2.81a1.52,1.52,0,0,0,1.57.81,2.48,2.48,0,0,1,0,.94c-.36.26-1,0-1.44.13-.25.13,0,.67-.13.94a.8.8,0,0,1-.6.4,1.35,1.35,0,0,1-1.69-.27,2.51,2.51,0,0,1-.12-.94c-.24,0-.5-.41-.62.06-.18.69-.44,1.5-.77,1.69a1.9,1.9,0,0,1-.84.13c-.12.47,0,.34-.24.74-.24.14-.73,0-.91.27-.48.6.15.37.27.64v.5c-.36.4-.78-.14-1.08.4-.64,1.14-.46,2.35,1,2.35.44,0,.55-.34.79-.47s.15-.57.39-1c.12,0,.51-.1.63-.1.24-.94.44-.23,1-.53.9-.47.72,0,.87.84.1.55.12.23,0,.9a1.08,1.08,0,0,0,.94-.13c0,.13-.17-1-.39-1.08,0,0-.46-.94.33-1.14,0,0,.54.61.78.61v.27c.61.26.37.8.61,1.34.12.13.36.27.48.13,0-.53.12-.94.6-.8,0-.27-.12-.67,0-.67.36-.27.85,0,1.21-.14v-.4a1.15,1.15,0,0,1,1,0v.54c.37.13.73.4.49.53a5.25,5.25,0,0,1-2.54.27c0,.27-.12.54,0,.81.37.4,1,.4,1.21.66s.24,1.48-.12,1.61-1.69.41-2.17-.26-1.45.26-2.18-.27c-.24-.27-1-.27-.84-.94-1.45,0-2.72-.74-4.1.54-.13.12-.36.26-.24.53a1.63,1.63,0,0,0-.73.27c-.84.94-1.7,2.37-1.32,3.62s1.08,3.35,2.41,2.95v-.53c.12-.14.87.09,1,.23.61.53.94,0,1.54.57.36.27,1,0,1.09.27.36.67-.12,1.2.24,2.14.12.27.48.41.48.54.36.8,0,1.74.24,2.68,0,.4.24.54.37.8s-.13.81,0,1.21c.12.13.48.13.6.4.12.94-.12,1.88,0,2.82h.48c.24-.94,1.51-.54,1.75-.94a20.37,20.37,0,0,0,2.29-3.49c.24-.26-.18-.93.06-1.2s.73-.14.85-.27a2.19,2.19,0,0,0,0-1.74c-.12-.54-.3-.54-.3-1.08s.24-.67.36-.67c.84-.4,1.15-1.34,1.75-2h.36a1.53,1.53,0,0,0,.24-1.61c-.36-1-1.35.07-2.29-.53-.3-.19,0-.94-.24-1.07-.36-.41-.6-.81-1-1.21s-.72-1.21-.24-1.48c.61-.53,1,.64,1.57,1s.85,1.48,1.45,2c.24.27,1.08-.23,1.45-.36a2.15,2.15,0,0,1,1.54-.54c0-.67.11-1.21-.37-1.61-.72-.4-2,.13-2.5-.54-.24-.13-.12-1.07-.12-1.07a4.39,4.39,0,0,1,2,.8c.36.41,1.09,0,1.69.27.36.14.72.81,1.09,1.21.12.13.48,0,.72,0-.24,1.48,1.21,2.28,1.21,3.75,0,.27.36.14.48.14,1-.94.72-2.55,1.69-3.36.24-.26,1.08-.26,1.21.14.23.67.23,1.34,1,1.07a5.59,5.59,0,0,0,1,3.62,1.81,1.81,0,0,0,.54-.9c-.48-1.08-1.33-1.78-1.09-3h.37c.6.53.84,1.6,1.44,1.07A1.54,1.54,0,0,0,123,33.92Zm9.9,11.93c-.24-.4-.85-.67-1.09-1.34s.12-1.61-.24-2.28a.89.89,0,0,0-.84-.4c-.32.53-.24,1.47-.61,2.14-.24-.53-.24-1.2-.6-1.34a3.36,3.36,0,0,0-2.53.27,2.44,2.44,0,0,0-1.09.67c-.36.54-1.45,0-1.57.67-.24,1.21-.6,2.55.24,3.35a1.32,1.32,0,0,0,1.69.27,1.76,1.76,0,0,1,1.33-.4c-.12.13.24.13.12.27.6,0,1.08-.14,1.45.4.12.54,0,1.29.48,1.48.68.25,1.09,1,1.93.4a.67.67,0,0,1,.29-.52c.23-.47.45-1,.67-1.43a2.43,2.43,0,0,1,.34-.83c.07-.15.12-.3.18-.45A1.48,1.48,0,0,0,132.87,45.85ZM95.4,14.76c-.15-.12-.83-.58-1-.45,0-.13.86-.2.86-.2.12-.54-.83-.89-.59-1.16s1.1.05,1.34-.22c.85-.8.25-2.28.25-3.48.84,0,.6-1.34.72-2-.72-.14-1.33.53-1.81.13s.6-1.07.12-1.61a1.08,1.08,0,0,0-1.69,0v.81a7.35,7.35,0,0,0-2.89.53s.12.94,0,1.07a2.85,2.85,0,0,1-1.09,0l-.2.36c.76.75.49,1.14-.27,1-.86.77.59,1.38.71,1.78a18,18,0,0,1,0,2.54c0,.36.39.72.39,1.08s-.66,0-.78.13c-.24.54.48.94.36,1.48-.12.13-.48.13-.48.13-.36,1.07.12,2.28.48,3.36.12.26.78.26.78.13.25-.54,0-1.21.25-1.48a5.31,5.31,0,0,1,4-2.54C95.1,16.09,95.4,15.16,95.4,14.76Zm-7.66,2.67c.24-.41-.36-.81-.24-1.34h-.36A3.53,3.53,0,0,0,87,14.48c-.12,0-.24-.27-.36-.14a4,4,0,0,0,0-1.2s-.24-.27-.36-.14a5.72,5.72,0,0,0-.73-1.87c0-.14-.53-.35-.72-.14-.36.4.12,1.21-.36,1.61H84a.87.87,0,0,0,.12,1.07c.48.14,1.21-.13,1.44.14s.25,1.07.13,1.74c-.13.27-.13.67-.49.94s-1-.14-1.2.4c0,.13-.12.54,0,.67s.36,0,.6,0c.85.4,1.33,1.88,2.17,1.21.24-.14.12-.94.12-1.48A1,1,0,0,0,87.74,17.43Zm9.41,7c0,.13.42.27,1-.14a15.85,15.85,0,0,0-.49-2.41h-.48C97.51,22.79,96.79,23.59,97.15,24.4ZM81,8.71c.48.4,1.09.27,1.69.27-.12.13.12.4.12.4.48.14,1-.27,1.45.14v.4a4.1,4.1,0,0,0,1.81.53c.24-.9-.94-1.2-1.33-1.87-.23-.41-.84-.14-1.2-.14,0-.27-.44-.39-.7-.3-.75.27-1,.17-1.3-.23S80.74,8.44,81,8.71Zm48.75,29.77a1.77,1.77,0,0,0-1.2,0v.4c.23.4,1.08.13,1.08.67a2.19,2.19,0,0,0,.6,1.07c.25.13.85-.13,1,.13.36.28.72.54,1.09.41a.67.67,0,0,0,0-.67c-.49-.27-.73-.94-1.09-1.07A4.33,4.33,0,0,0,130,39C130.09,38.74,129.73,38.61,129.73,38.48Zm-5.43-.54a3,3,0,0,1-1.08,0c0,1.07,1.2,1.74,1.81.94a1.34,1.34,0,0,0,.24-1.61C124.9,36.73,124.66,37.67,124.3,37.94Zm2.9-2.41c-.31-.26-.36.4-.61.67-.12,0-.36-.14-.36.13v.54c.24.13.61,0,.85,0C127,36.33,127.68,35.93,127.2,35.53Zm2-5.9a2.34,2.34,0,0,0,.24-3.09c-.12,0-.3-.11-.36,0-.37.67.12,1.34-.24,2-.24.4-.61.67-.49,1.07A1,1,0,0,0,129.25,29.63Zm-5.13,10.66a6.83,6.83,0,0,0-1.69,0l.12.4c.48.4,1.09,0,1.57.13ZM129,24.53a2.12,2.12,0,0,0,.12,1.48.71.71,0,0,0,.72,0A2.42,2.42,0,0,0,130,24.4a.68.68,0,0,0-.48.13C129.4,24.63,129.13,24.53,129,24.53Zm-7.36,14.62c-.61-.41-.85-1.08-1.57-.94.48.8,1.08,2.14,2,2v-.54C122,39.42,121.77,39.15,121.65,39.15Zm4.34.53c0-.81.36-.67.85-1.07.12,0,.12-.54,0-.67a.72.72,0,0,0-.73,0,1.61,1.61,0,0,0-.6,1.74C125.63,39.82,126,40,126,39.68ZM79.71,31.91c-.12.13,0,.4,0,.67.73-.27,1.51.93,1.87.53.61-.67-.9-.94-1.5-1.2A.92.92,0,0,0,79.71,31.91Zm3.2-14.48a1.11,1.11,0,0,0,0,1.34.56.56,0,0,0,.73-.27.94.94,0,0,0-.24-1.07C83.29,17.35,83,17.43,82.91,17.43Zm-.84,15.82v.53a.66.66,0,0,0,.72,0c.12-.13,0-.4,0-.67-.12,0-.24.14-.36.14Zm46.46-11.94c-.13-.13-.25-.13-.49-.13.61.94,0,3.08,1.33,2.68.12,0-.12-.53-.12-.8C129,22.52,128.76,22,128.53,21.31Zm-6.16-13.4c0-.13,0-.29,0-.45l-.74-.59a1.18,1.18,0,0,0-.25.1,1.26,1.26,0,0,0,0,.94C121.65,8,122,7.91,122.37,7.91Zm-13.75,6.3c.08-.1,0-.4,0-.54h-.25L108,13.4h-.72a1.42,1.42,0,0,0,.12.81C108,15.15,108.13,14.74,108.62,14.21Zm13.27-5.5c-.24,0-.21.07-.45-.07.24.54.45,1.14.93.88.12-.14,0-.41-.12-.67Zm-.73-.13c.37-.41,0-.94-.6-.81a2.57,2.57,0,0,1-.48,0,.67.67,0,0,0,0,.67c.36.27.84.54,1.08.14Z"/><path id="Fill-3" class="cls-3" d="M2.2,64a20.44,20.44,0,0,0,3-3.91,11.59,11.59,0,0,0,1.51-3.51L28.21,42.09a48.51,48.51,0,0,0,8.91.14c6-.57,13.54-4.85,20.38-4.85A17.7,17.7,0,0,1,68.9,41.8s.21-.19,2-1.32A15.15,15.15,0,0,1,81.44,38c5.42.71,7,2.35,15.16,4.06,9,1.89,12.41,1.46,20,.42a7.3,7.3,0,0,0,6.3,5.28l-19,16.32-46.69.31s-1.34,2-6.33,1.93c-4.06,0-5.2-2.17-5.2-2.17L2.2,64"/><path id="Fill-4" class="cls-4" d="M51,67.24h-.18c-3.33,0-5-1.41-5.65-2.17l-43-.14V64l.62.64L2.2,64v.89H0L1.58,63.4s.38-.37.94-1a19.17,19.17,0,0,0,1.93-2.69,12.08,12.08,0,0,0,1.35-3l0-.17.06-.37L28,41.16l.33,0a50.9,50.9,0,0,0,5.37.29c1.08,0,2.24,0,3.35-.15,5.65-.5,13.29-4.81,20.47-4.85A18.61,18.61,0,0,1,69,40.67c.3-.21.75-.5,1.43-.94A16.12,16.12,0,0,1,79.32,37a17.67,17.67,0,0,1,2.24.15c5.63.76,7.22,2.4,15.22,4.08a49.13,49.13,0,0,0,10.33,1.28,68.44,68.44,0,0,0,9.38-.87l.74-.1.23.72a8.57,8.57,0,0,0,.5,1.18,5.88,5.88,0,0,0,1.44,1.91,7.65,7.65,0,0,0,3.32,1.52l.25,0,2.17.15L104.22,65l-46.62.31c-.7.67-2.58,1.93-6.49,1.93Zm0-1.78c4,0,5.26-1.37,5.42-1.54h0l.26-.39,46.82-.31,17.46-15a9.46,9.46,0,0,1-2.71-1.5A8.32,8.32,0,0,1,116,43.49a64.66,64.66,0,0,1-8.91.8A50.64,50.64,0,0,1,96.42,43c-8.25-1.74-9.9-3.38-15.1-4.05a15.71,15.71,0,0,0-2-.13,14.36,14.36,0,0,0-8,2.45c-1.3.84-1.74,1.16-1.84,1.24h0l-.62.57-.6-.59s-.24-.23-.75-.62a17.43,17.43,0,0,0-2.2-1.45,16.28,16.28,0,0,0-7.83-2.09c-6.51,0-14,4.2-20.3,4.84-1.19.11-2.39.15-3.52.15-2.4,0-4.46-.18-5.24-.26L7.51,57.17A14.2,14.2,0,0,1,6,60.59a21.84,21.84,0,0,1-1.8,2.56l42,.14.25.46,0,0a.92.92,0,0,0,.12.16,2.92,2.92,0,0,0,.66.58,6.34,6.34,0,0,0,3.6.95H51Z"/><path id="Fill-5" class="cls-4" d="M50.08,58.52s-.25-.26-.78-.71A18,18,0,0,0,47,56.16a16.85,16.85,0,0,0-8.31-2.49h-.48a25.39,25.39,0,0,0-9.31,1.94,43.77,43.77,0,0,1-11.45,2.77c-1.26.12-2.43.17-3.48.17A24.35,24.35,0,0,1,7,57.69L7.55,56a12,12,0,0,0,1.63.37,26.74,26.74,0,0,0,4.76.39c1,0,2.11,0,3.31-.16a41.92,41.92,0,0,0,11-2.67,27,27,0,0,1,9.91-2h.52a19.3,19.3,0,0,1,11.89,4.68,16.78,16.78,0,0,1,13.23-6.14,20.81,20.81,0,0,1,3.66.33c11.69,2,14.45,4.74,22,5.55a45.63,45.63,0,0,0,4.79.3,14.73,14.73,0,0,0,2.58-.18,3,3,0,0,0,.62-.17l18.55-14.45,1.09,1.41L98.52,57.73c-.26.18-1.11.66-4.21.66a46.36,46.36,0,0,1-5-.31c-8.08-.9-10.75-3.61-22.14-5.56a19.38,19.38,0,0,0-3.36-.3,15,15,0,0,0-11.64,5.23,9.31,9.31,0,0,0-.69.92l-.61,1-.8-.84"/><polyline id="Fill-6" class="cls-4" points="49.76 56.8 68.32 41.12 69.47 42.48 50.91 58.16 49.76 56.8"/><path id="Fill-7" class="cls-4" d="M99.33,61.37a11.07,11.07,0,0,1-2.44-3.48h0l1.69-.59a.63.63,0,0,0,0,.14,4.56,4.56,0,0,0,.31.55,12.77,12.77,0,0,0,1.69,2.16,17.08,17.08,0,0,0,2.61,2.17c.83.58,1.46,1,1.46,1l-.9,1.54a23.71,23.71,0,0,1-4.47-3.44"/><path id="Fill-8" class="cls-5" d="M16.3,54.76l14.19-9.82a20,20,0,0,0,3.63.21,21.4,21.4,0,0,0,7.56-1.51l-9.25,6.88s-5.6,1.88-9.24,3.15a23.6,23.6,0,0,1-6.89,1.09"/><path id="Fill-9" class="cls-5" d="M45.72,42.66a45.32,45.32,0,0,1,7.77-2.1,18.69,18.69,0,0,1,7.28.2L48,50.92a12.93,12.93,0,0,0-3.87-1.25,25.77,25.77,0,0,0-8.2.53l9.81-7.54"/><path id="Fill-10" class="cls-5" d="M64.24,48.36l6.89-5.64a15.46,15.46,0,0,1,6.75-2c3.75-.13,9.94,2.06,9.94,2.06l-9.41,7.51a43.11,43.11,0,0,0-6.62-1.9c-5.74-1.38-7.55,0-7.55,0"/><path id="Fill-11" class="cls-5" d="M81.82,51.31l9.35-7.67A61,61,0,0,0,97.5,45c3.8.59,7.34.88,7.34.88L94.71,53.77a40.07,40.07,0,0,1-7.09-.69,34.18,34.18,0,0,1-5.8-1.77"/><path id="Fill-12" class="cls-4" d="M55.85,64.71a2.68,2.68,0,0,0-.21-.24,5.66,5.66,0,0,0-.91-.8,6.5,6.5,0,0,0-3.84-1.17h-.11a6.18,6.18,0,0,0-4.36,1.81,2.5,2.5,0,0,0-.24.28l-1.45-1a7.73,7.73,0,0,1,6-2.83h.14a7.85,7.85,0,0,1,6.49,3.07l-1.48,1,0-.07"/><path id="Fill-13" class="cls-2" d="M165.67,30.65a14.73,14.73,0,0,1-5,.89,8.33,8.33,0,0,1-6.07-2.14,8.35,8.35,0,0,1-2.27-6c0-4.84,3.35-8.38,8.8-8.38a10.15,10.15,0,0,1,4.07.75l-.53,1.71a8.06,8.06,0,0,0-3.59-.7c-3.95,0-6.53,2.46-6.53,6.53s2.46,6.55,6.26,6.55a6.65,6.65,0,0,0,2.8-.44V24.53h-3.28V22.85h5.35v7.8"/><polyline id="Fill-14" class="cls-2" points="178.01 23.76 171.72 23.76 171.72 29.62 178.75 29.62 178.75 31.38 169.6 31.38 169.6 15.14 178.39 15.14 178.39 16.9 171.72 16.9 171.72 22.03 178.01 22.03 178.01 23.76"/><path id="Fill-15" class="cls-2" d="M182.25,15.38a21.58,21.58,0,0,1,4-.36c2.24,0,3.71.43,4.72,1.35a4,4,0,0,1,1.28,3.08,4.28,4.28,0,0,1-3.06,4.12v.07c1.23.44,2,1.59,2.39,3.28a28.8,28.8,0,0,0,1.23,4.46h-2.17a19.31,19.31,0,0,1-1.06-3.88c-.48-2.24-1.38-3.09-3.28-3.16h-2v7h-2.1Zm2.1,7.37h2.14c2.24,0,3.66-1.23,3.66-3.08,0-2.1-1.52-3-3.73-3a8.61,8.61,0,0,0-2.07.19v5.9Z"/><polyline id="Fill-16" class="cls-2" points="204.37 23.76 198.08 23.76 198.08 29.62 205.12 29.62 205.12 31.38 195.96 31.38 195.96 15.14 204.75 15.14 204.75 16.9 198.08 16.9 198.08 22.03 204.37 22.03 204.37 23.76"/><polyline id="Fill-17" class="cls-2" points="208.59 15.14 217.33 15.14 217.33 16.9 210.71 16.9 210.71 22.29 216.83 22.29 216.83 24.03 210.71 24.03 210.71 31.38 208.59 31.38 208.59 15.14"/><path id="Fill-18" class="cls-2" d="M227.45,31.64c-4.31,0-7.3-3.32-7.3-8.24,0-5.15,3.18-8.53,7.52-8.53s7.32,3.4,7.32,8.22c0,5.56-3.39,8.55-7.51,8.55Zm.1-1.71c3.32,0,5.2-3.06,5.2-6.75,0-3.22-1.68-6.6-5.18-6.6s-5.22,3.25-5.22,6.77,1.87,6.58,5.17,6.58Z"/><path id="Fill-19" class="cls-2" d="M238.49,15.38a21.61,21.61,0,0,1,4-.36c2.23,0,3.7.43,4.72,1.35a4.06,4.06,0,0,1,1.27,3.08,4.28,4.28,0,0,1-3.06,4.12v.07c1.23.44,2,1.59,2.39,3.28a28.8,28.8,0,0,0,1.23,4.46H246.9a19.31,19.31,0,0,1-1.06-3.88c-.48-2.24-1.37-3.09-3.28-3.16h-2v7h-2.1Zm2.1,7.37h2.14c2.24,0,3.66-1.23,3.66-3.08,0-2.1-1.51-3-3.73-3a8.61,8.61,0,0,0-2.07.19v5.9Z"/><path id="Fill-20" class="cls-2" d="M265.91,24.24c-.12-2.26-.27-5-.27-7h0c-.58,1.88-1.23,3.93-2.05,6.17l-2.87,7.88h-1.59l-2.65-7.73c-.77-2.32-1.4-4.39-1.85-6.32h-.05c0,2-.17,4.73-.32,7.18l-.43,7h-2l1.13-16.24h2.68L258.37,23c.67,2,1.2,3.78,1.64,5.47h.05c.43-1.64,1-3.42,1.73-5.47l2.89-7.85h2.67l1,16.24h-2.08l-.38-7.14"/><polyline id="Fill-21" class="cls-2" points="280.75 23.76 274.47 23.76 274.47 29.62 281.5 29.62 281.5 31.38 272.35 31.38 272.35 15.14 281.14 15.14 281.14 16.9 274.47 16.9 274.47 22.03 280.75 22.03 280.75 23.76"/><polyline id="Fill-22" class="cls-2" points="293.38 23.76 287.09 23.76 287.09 29.62 294.13 29.62 294.13 31.38 284.97 31.38 284.97 15.14 293.76 15.14 293.76 16.9 287.09 16.9 287.09 22.03 293.38 22.03 293.38 23.76"/><path id="Fill-23" class="cls-2" d="M297.62,15.38a21.61,21.61,0,0,1,4-.36c2.24,0,3.71.43,4.72,1.35a4.06,4.06,0,0,1,1.27,3.08,4.29,4.29,0,0,1-3.05,4.12v.07c1.22.44,2,1.59,2.38,3.28a30,30,0,0,0,1.23,4.46H306A20.05,20.05,0,0,1,305,27.5c-.48-2.24-1.37-3.09-3.28-3.16h-2v7h-2.1Zm2.1,7.37h2.14c2.24,0,3.66-1.23,3.66-3.08,0-2.1-1.51-3-3.73-3a8.61,8.61,0,0,0-2.07.19v5.9Z"/><path id="Fill-24" class="cls-2" d="M311.33,15.36a29.63,29.63,0,0,1,4.48-.34c3,0,5.16.67,6.58,2a7.45,7.45,0,0,1,2.31,5.85,8.69,8.69,0,0,1-2.33,6.31c-1.55,1.52-4.05,2.34-7.21,2.34a30.35,30.35,0,0,1-3.83-.19Zm2.12,14.38a14.55,14.55,0,0,0,2.12.09c4.48,0,6.92-2.5,6.92-6.89,0-3.88-2.15-6.26-6.58-6.26a12,12,0,0,0-2.46.22V29.74Z"/><polyline id="Fill-25" class="cls-2" points="336.56 23.76 330.27 23.76 330.27 29.62 337.31 29.62 337.31 31.38 328.15 31.38 328.15 15.14 336.95 15.14 336.95 16.9 330.27 16.9 330.27 22.03 336.56 22.03 336.56 23.76"/><path id="Fill-26" class="cls-4" d="M152.48,38.85a27.61,27.61,0,0,1,4.75-.37,8.94,8.94,0,0,1,4.79.92A3.53,3.53,0,0,1,164,42.6a3.71,3.71,0,0,1-2.65,3.45v.05a4,4,0,0,1,3.22,4,4.26,4.26,0,0,1-1.68,3.44c-1.18.94-3.16,1.47-6.39,1.47a28.52,28.52,0,0,1-4-.24ZM156.12,45h1.2c2,0,3-.8,3-2s-.94-1.88-2.61-1.88a7,7,0,0,0-1.56.12Zm0,7.2a8,8,0,0,0,1.42.07c1.66,0,3.13-.65,3.13-2.36s-1.47-2.29-3.3-2.29h-1.25v4.58Z"/><polygon id="Fill-27" class="cls-4" points="167.03 54.84 170.69 54.84 170.69 38.6 167.03 38.6 167.03 54.84"/><path id="Fill-28" class="cls-4" d="M177,38.6h3.66V48.87c0,4.62-2.21,6.24-5.75,6.24a9.62,9.62,0,0,1-2.7-.39l.41-3a5.94,5.94,0,0,0,1.88.29c1.54,0,2.5-.7,2.5-3.21V38.6"/><path id="Fill-29" class="cls-4" d="M183.73,38.85a27.7,27.7,0,0,1,4.75-.37,8.94,8.94,0,0,1,4.79.92,3.53,3.53,0,0,1,1.93,3.2,3.69,3.69,0,0,1-2.65,3.45v.05a4,4,0,0,1,3.23,4,4.27,4.27,0,0,1-1.69,3.44c-1.18.94-3.16,1.47-6.38,1.47a28.57,28.57,0,0,1-4-.24ZM187.37,45h1.2c2,0,3-.8,3-2s-.94-1.88-2.6-1.88a7.06,7.06,0,0,0-1.57.12Zm0,7.2a8,8,0,0,0,1.42.07c1.66,0,3.13-.65,3.13-2.36s-1.47-2.29-3.3-2.29h-1.25v4.58Z"/><polyline id="Fill-30" class="cls-4" points="207.92 47.98 201.95 47.98 201.95 51.83 208.62 51.83 208.62 54.84 198.29 54.84 198.29 38.6 208.28 38.6 208.28 41.62 201.95 41.62 201.95 44.99 207.92 44.99 207.92 47.98"/><polyline id="Fill-31" class="cls-4" points="211.13 38.6 214.79 38.6 214.79 51.76 221.25 51.76 221.25 54.84 211.13 54.84 211.13 38.6"/><path id="Fill-32" class="cls-4" d="M223.51,51.08a9.27,9.27,0,0,0,4.08,1c1.68,0,2.57-.69,2.57-1.78s-.77-1.59-2.72-2.26c-2.7-1-4.48-2.46-4.48-4.84,0-2.77,2.34-4.87,6.14-4.87a9.5,9.5,0,0,1,4.15.82l-.82,2.94a7.54,7.54,0,0,0-3.38-.77c-1.59,0-2.36.74-2.36,1.56,0,1,.9,1.5,3,2.32,2.86,1,4.19,2.55,4.19,4.86,0,2.72-2.07,5-6.53,5a10.48,10.48,0,0,1-4.6-1l.74-3"/><polyline id="Fill-33" class="cls-4" points="239.54 41.69 235.15 41.69 235.15 38.6 247.63 38.6 247.63 41.69 243.2 41.69 243.2 54.84 239.54 54.84 239.54 41.69"/><polygon id="Fill-34" class="cls-4" points="249.59 54.84 253.25 54.84 253.25 38.6 249.59 38.6 249.59 54.84"/><path id="Fill-35" class="cls-4" d="M268.31,54.41a10.88,10.88,0,0,1-4.15.7c-5.61,0-8.5-3.52-8.5-8.17,0-5.54,4-8.6,8.86-8.6a9.52,9.52,0,0,1,4,.72L267.75,42a7.79,7.79,0,0,0-3.08-.6c-2.89,0-5.16,1.76-5.16,5.4,0,3.25,1.93,5.3,5.18,5.3a8.83,8.83,0,0,0,3.09-.53l.53,2.89"/><polyline id="Fill-36" class="cls-4" points="274.4 38.6 274.4 44.87 280.45 44.87 280.45 38.6 284.11 38.6 284.11 54.84 280.45 54.84 280.45 48.07 274.4 48.07 274.4 54.84 270.74 54.84 270.74 38.6 274.4 38.6"/><polyline id="Fill-37" class="cls-4" points="290.45 41.69 286.07 41.69 286.07 38.6 298.55 38.6 298.55 41.69 294.11 41.69 294.11 54.84 290.45 54.84 290.45 41.69"/><polygon id="Fill-38" class="cls-4" points="300.5 54.84 304.16 54.84 304.16 38.6 300.5 38.6 300.5 54.84"/><path id="Fill-39" class="cls-4" d="M307.32,54.84V38.6h4.29L315,44.55a52.63,52.63,0,0,1,2.65,5.57h.05a66.17,66.17,0,0,1-.29-6.79V38.6h3.37V54.84h-3.85l-3.47-6.26a57.65,57.65,0,0,1-2.82-5.74h-.1c.13,2.17.17,4.46.17,7.11v4.89h-3.37"/><path id="Fill-40" class="cls-4" d="M337.49,54.09a18.09,18.09,0,0,1-5.43.92c-3,0-5.1-.75-6.6-2.17a8.16,8.16,0,0,1-2.28-5.92c0-5.4,3.95-8.48,9.27-8.48a11.69,11.69,0,0,1,4.5.77l-.77,3a8.46,8.46,0,0,0-3.75-.7c-3.06,0-5.4,1.74-5.4,5.25s2.12,5.33,5.13,5.33a5.6,5.6,0,0,0,1.78-.22V48.41h-2.5V45.54h6.05v8.55"/></g></g></g></g></g></svg>